<?xml version="1.0" standalone="no"?>
<!DOCTYPE svg PUBLIC "-//W3C//DTD SVG 20010904//EN"
 "http://www.w3.org/TR/2001/REC-SVG-20010904/DTD/svg10.dtd">
<svg version="1.0" xmlns="http://www.w3.org/2000/svg"
 width="745.000000pt" height="748.000000pt" viewBox="0 0 745.000000 748.000000"
 preserveAspectRatio="xMidYMid meet">

<g transform="translate(0.000000,748.000000) scale(0.100000,-0.100000)"
fill="#000000" stroke="none">
<path d="M2614 5666 c-18 -13 -19 -31 -22 -233 -2 -207 -4 -219 -23 -236 -19
-15 -45 -17 -226 -17 -142 1 -209 -3 -219 -11 -11 -9 -14 -53 -14 -225 0 -180
-2 -215 -16 -228 -19 -19 3 -18 -246 -20 -113 0 -210 -5 -215 -9 -4 -5 -10
-107 -13 -227 -4 -161 -8 -223 -18 -232 -10 -10 -69 -14 -230 -16 -130 -2
-222 -8 -229 -14 -10 -8 -13 -114 -13 -468 0 -252 -3 -465 -6 -474 -5 -14 -35
-16 -230 -16 -219 0 -223 0 -238 -22 -14 -20 -16 -128 -16 -959 0 -894 1 -937
18 -952 16 -15 48 -17 239 -17 192 0 222 -2 227 -16 3 -9 6 -109 6 -222 0
-114 5 -214 10 -222 8 -12 48 -16 229 -20 162 -4 224 -8 233 -18 10 -9 14 -71
18 -232 3 -120 7 -221 10 -223 4 -4 244 -13 427 -17 47 0 53 -21 53 -176 l0
-144 1465 0 1465 0 0 148 c0 81 5 154 10 162 8 13 45 15 231 16 205 0 222 2
235 19 11 15 14 66 14 230 0 151 3 214 12 223 9 9 74 12 229 12 163 0 220 3
226 13 4 6 10 113 13 237 l5 225 226 5 c171 4 230 8 242 19 16 12 17 92 17
950 0 831 -2 939 -16 959 -15 22 -19 22 -228 22 -194 0 -214 2 -229 18 -15 17
-17 64 -17 466 0 289 -4 454 -10 467 -10 18 -23 19 -228 19 -156 0 -221 3
-230 12 -9 9 -12 72 -12 223 0 167 -3 215 -14 231 -13 18 -29 19 -236 20 -180
0 -223 3 -231 15 -5 8 -9 112 -9 231 0 172 -3 219 -14 231 -11 11 -60 14 -236
15 -129 0 -227 5 -233 11 -5 5 -10 103 -11 230 -1 166 -4 223 -14 233 -20 20
-1891 24 -1918 4z m1924 -711 c2 -179 0 -224 -12 -240 -14 -19 -25 -20 -224
-17 -209 3 -210 3 -226 -20 -14 -20 -16 -99 -16 -713 0 -609 2 -693 16 -713
15 -22 19 -22 228 -22 151 0 215 -3 224 -12 9 -9 12 -73 12 -224 0 -209 0
-213 22 -228 19 -13 59 -16 239 -16 216 0 217 0 223 -22 3 -13 6 -113 6 -224
0 -157 3 -204 14 -220 14 -18 34 -19 481 -24 399 -4 467 -7 475 -20 11 -16 14
-880 4 -917 -6 -23 -7 -23 -228 -23 -159 0 -225 3 -234 12 -9 9 -12 72 -12
220 0 208 0 209 -25 233 l-24 25 -441 0 c-439 0 -471 -2 -492 -34 -4 -6 -8
-106 -8 -221 0 -151 -3 -214 -12 -223 -9 -9 -72 -12 -222 -12 -116 0 -218 -5
-226 -10 -13 -8 -15 -74 -18 -474 -2 -450 -3 -466 -22 -476 -13 -7 -250 -10
-717 -10 -622 0 -699 2 -714 16 -16 14 -18 39 -19 227 0 138 -4 215 -11 224
-9 10 -59 13 -223 13 -116 0 -218 5 -226 10 -12 8 -15 47 -18 232 -2 194 -5
225 -19 236 -13 9 -125 12 -478 12 -345 0 -464 3 -473 12 -9 9 -12 234 -12
949 0 516 3 944 6 953 5 14 36 16 235 16 215 0 229 1 239 19 6 12 10 106 10
235 0 203 1 216 19 226 13 6 180 10 473 10 249 0 458 4 465 8 8 5 12 68 14
217 1 200 7 240 33 257 6 4 108 8 227 8 188 0 218 2 223 16 3 9 6 222 6 474 0
427 1 460 18 469 11 7 257 10 727 8 l710 -2 3 -220z"/>
<path d="M2120 3221 c-15 -30 -14 -1413 2 -1429 9 -9 72 -12 223 -12 193 0
213 -2 228 -18 15 -16 17 -47 17 -225 0 -195 1 -208 20 -227 20 -20 29 -21
478 -18 251 2 463 7 470 11 9 6 12 113 12 477 0 454 -1 470 -19 480 -12 6
-106 10 -236 10 l-215 0 -10 26 c-6 14 -10 119 -10 233 0 167 -3 211 -14 220
-10 9 -77 12 -226 10 -185 -1 -214 1 -229 15 -14 14 -16 46 -18 222 -1 179 -4
208 -19 225 -16 18 -33 19 -230 19 -201 0 -214 -1 -224 -19z"/>
</g>
</svg>
